# xmcd CD database file
#
# Track frame offsets:
#	150
#	22776
#	37930
#	57808
#	71101
#	88348
#	105102
#	125497
#	139438
#	148723
#	162809
#	170813
#	185970
#	210038
#	268253
#	289557
#	307530
#	322830
#	337826
#
# Disc length: 4675 seconds
#
# Revision: 10
# Processed by: cddbd v1.5.2PL0 Copyright (c) Steve Scherf et al.
# Submitted via: CDex 1.70beta2
#
DISCID=07124113
DTITLE=RED HOT CHILI PEPPERS - Mother's Milk
DYEAR=1989
DGENRE=Mixture Rock
TTITLE0=Good Time Boys
TTITLE1=Higher Ground
TTITLE2=Subway to Venus
TTITLE3=Magic Johnson
TTITLE4=Nobody Weird Like Me
TTITLE5=Knock Me Down
TTITLE6=Taste the Pain
TTITLE7=Stone Cold Bush
TTITLE8=Fire
TTITLE9=Pretty Little Ditty
TTITLE10=Punk Rock Classic
TTITLE11=Sexy Mexican Maid
TTITLE12=Johnny, Kick a Hole in the Sky
TTITLE13=Song That Made Us What We Are Today (demo) [Bonus Track]
TTITLE14=Knock Me Down (original long version) [Bonus Track]
TTITLE15=Sexy Mexican Maid (original long version) [Bonus Track]
TTITLE16=Salute to Kareem (demo) [Bonus Track]
TTITLE17=Castles Made of Sand (Live) [Bonus Track]
TTITLE18=Crosstown Traffic (Live) [Bonus Track]
EXTD=YEAR: 1989
EXTT0=
EXTT1=
EXTT2=
EXTT3=
EXTT4=
EXTT5=
EXTT6=
EXTT7=
EXTT8=
EXTT9=
EXTT10=
EXTT11=
EXTT12=
EXTT13=
EXTT14=
EXTT15=
EXTT16=
EXTT17=
EXTT18=
PLAYORDER=
